<svg xmlns="http://www.w3.org/2000/svg" viewBox="0 0 64 64">
	<circle cx="32" cy="32" r="31" fill="#15182A"/>
	<path d="M32.00 2.50 A29.5 29.5 0 0 1 39.93 3.59 L38.59 8.40 A24.5 24.5 0 0 0 32.00 7.50Z" fill="#E74040"/>
	<path d="M39.64 3.51 A29.5 29.5 0 0 1 47.02 6.61 L44.47 10.91 A24.5 24.5 0 0 0 38.34 8.33Z" fill="#E76A40"/>
	<path d="M46.75 6.45 A29.5 29.5 0 0 1 53.08 11.36 L49.50 14.86 A24.5 24.5 0 0 0 44.25 10.78Z" fill="#E79440"/>
	<path d="M52.86 11.14 A29.5 29.5 0 0 1 57.70 17.52 L53.34 19.97 A24.5 24.5 0 0 0 49.32 14.68Z" fill="#E7BE40"/>
	<path d="M57.55 17.25 A29.5 29.5 0 0 1 60.57 24.66 L55.73 25.91 A24.5 24.5 0 0 0 53.22 19.75Z" fill="#E7E740"/>
	<path d="M60.49 24.36 A29.5 29.5 0 0 1 61.50 32.31 L56.50 32.26 A24.5 24.5 0 0 0 55.67 25.66Z" fill="#BEE740"/>
	<path d="M61.50 32.00 A29.5 29.5 0 0 1 60.41 39.93 L55.60 38.59 A24.5 24.5 0 0 0 56.50 32.00Z" fill="#94E740"/>
	<path d="M60.49 39.64 A29.5 29.5 0 0 1 57.39 47.02 L53.09 44.47 A24.5 24.5 0 0 0 55.67 38.34Z" fill="#6AE740"/>
	<path d="M57.55 46.75 A29.5 29.5 0 0 1 52.64 53.08 L49.14 49.50 A24.5 24.5 0 0 0 53.22 44.25Z" fill="#40E740"/>
	<path d="M52.86 52.86 A29.5 29.5 0 0 1 46.48 57.70 L44.03 53.34 A24.5 24.5 0 0 0 49.32 49.32Z" fill="#40E76A"/>
	<path d="M46.75 57.55 A29.5 29.5 0 0 1 39.34 60.57 L38.09 55.73 A24.5 24.5 0 0 0 44.25 53.22Z" fill="#40E794"/>
	<path d="M39.64 60.49 A29.5 29.5 0 0 1 31.69 61.50 L31.74 56.50 A24.5 24.5 0 0 0 38.34 55.67Z" fill="#40E7BE"/>
	<path d="M32.00 61.50 A29.5 29.5 0 0 1 24.07 60.41 L25.41 55.60 A24.5 24.5 0 0 0 32.00 56.50Z" fill="#40E7E7"/>
	<path d="M24.36 60.49 A29.5 29.5 0 0 1 16.98 57.39 L19.53 53.09 A24.5 24.5 0 0 0 25.66 55.67Z" fill="#40BEE7"/>
	<path d="M17.25 57.55 A29.5 29.5 0 0 1 10.92 52.64 L14.50 49.14 A24.5 24.5 0 0 0 19.75 53.22Z" fill="#4094E7"/>
	<path d="M11.14 52.86 A29.5 29.5 0 0 1 6.30 46.48 L10.66 44.03 A24.5 24.5 0 0 0 14.68 49.32Z" fill="#406AE7"/>
	<path d="M6.45 46.75 A29.5 29.5 0 0 1 3.43 39.34 L8.27 38.09 A24.5 24.5 0 0 0 10.78 44.25Z" fill="#4040E7"/>
	<path d="M3.51 39.64 A29.5 29.5 0 0 1 2.50 31.69 L7.50 31.74 A24.5 24.5 0 0 0 8.33 38.34Z" fill="#6A40E7"/>
	<path d="M2.50 32.00 A29.5 29.5 0 0 1 3.59 24.07 L8.40 25.41 A24.5 24.5 0 0 0 7.50 32.00Z" fill="#9440E7"/>
	<path d="M3.51 24.36 A29.5 29.5 0 0 1 6.61 16.98 L10.91 19.53 A24.5 24.5 0 0 0 8.33 25.66Z" fill="#BE40E7"/>
	<path d="M6.45 17.25 A29.5 29.5 0 0 1 11.36 10.92 L14.86 14.50 A24.5 24.5 0 0 0 10.78 19.75Z" fill="#E740E7"/>
	<path d="M11.14 11.14 A29.5 29.5 0 0 1 17.52 6.30 L19.97 10.66 A24.5 24.5 0 0 0 14.68 14.68Z" fill="#E740BE"/>
	<path d="M17.25 6.45 A29.5 29.5 0 0 1 24.66 3.43 L25.91 8.27 A24.5 24.5 0 0 0 19.75 10.78Z" fill="#E74094"/>
	<path d="M24.36 3.51 A29.5 29.5 0 0 1 32.31 2.50 L32.26 7.50 A24.5 24.5 0 0 0 25.66 8.33Z" fill="#E7406A"/>
	<rect x="14" y="14" width="36" height="36" rx="9" fill="#F4F5F7"/>
	<rect x="14" y="14" width="36" height="36" rx="9" fill="none" stroke="#C9CDD6" stroke-width="1"/>
	<circle cx="32" cy="32" r="10.5" fill="#E3E6EC"/>
	<circle cx="32" cy="32" r="9" fill="#FFFFFF" stroke="#BFC4CE" stroke-width="1"/>
	<circle cx="32" cy="32" r="3.2" fill="none" stroke="#9AA1AE" stroke-width="1.4"/>
</svg>